/* XPM */
static char *tick_xpm[] = {
"11 9 2 1",
" 	c None",
".	c #0000FF",
"           ",
"        .. ",
"       ... ",
"      ...  ",
" ..  ...   ",
" ......    ",
"  ....     ",
"   ..      ",
"           "};
