/* XPM */
static char *actualsize_xpm[] = {
/* columns rows colors chars-per-pixel */
"16 16 53 1",
"6 c #1E1E1E",
"= c #3C3C3C",
"> c #696969",
"w c #E44F4F",
"2 c #878787",
"+ c #A5A5A5",
"% c #171717",
"n c #EF3232",
"l c #9E9E9E",
"- c #1F1F1F",
"* c #5B5B5B",
". c #E55050",
"d c #854343",
"s c #DD0404",
"7 c #A6A6A6",
"# c #D08E8E",
"< c #636363",
"v c #727272",
", c #111111",
"& c #191919",
"9 c #282828",
"a c #C12C2C",
"$ c #555555",
"h c #919191",
"y c #F51C1C",
"o c #A0A0A0",
"0 c #303030",
"b c #3F3F3F",
"i c #4E4E4E",
"O c #8A8A8A",
"  c None",
"j c #292929",
"z c #383838",
"e c #474747",
"@ c #F61D1D",
"1 c #1B1B1B",
"t c #C32E2E",
"k c #323232",
"c c #505050",
"q c #4D4040",
"4 c #3A3A3A",
"u c #494949",
"p c #554848",
"f c #A05E5E",
": c #A3A3A3",
"3 c #606060",
"; c #6F6F6F",
"8 c #7E7E7E",
"x c #8D8D8D",
"g c #1D1D1D",
"r c #1A0D0D",
"X c #F02E2E",
"5 c #9D9D9D",
/* pixels */
"              .X",
"   oO+       .@#",
"  $%&%*     .@# ",
" =-;:>,<   .@#  ",
" 12   34  .@#   ",
"567   89 .@#    ",
" %>   0qw@#     ",
" *,32erty#      ",
"  ;uipasd       ",
"     .yfgu      ",
"    .@# hjkl    ",
"   .@#   7z-x   ",
"  .@#      c%v  ",
" .@#        ;b  ",
".@#             ",
"n#              "
};
