/* XPM */
static char *browse_xpm[] = {
/* columns rows colors chars-per-pixel */
"16 16 3 1",
". c Black",
"X c #FFFFFF",
"  c None",
/* pixels */
"                ",
"                ",
"  ............  ",
"  .XXXXXXXXXX.  ",
"  .X..X..X..X.  ",
"  .X..X..X..X.  ",
"  .XXXXXXXXXX.  ",
"  .X..X..X..X.  ",
"  .X..X..X..X.  ",
"  .XXXXXXXXXX.  ",
"  .X..X..X..X.  ",
"  .X..X..X..X.  ",
"  .XXXXXXXXXX.  ",
"  ............  ",
"                ",
"                "
};
