/* XPM */
static char *riffle32x32_xpm[] = {
/* columns rows colors chars-per-pixel */
"32 32 8 1",
". c Black",
"X c #FFFFFF",
"O c #FF7901",
"  c None",
"+ c #FFFF40",
"@ c #0000FF",
"# c #00FF00",
"o c #C00000",
/* pixels */
"                                ",
"                                ",
"                                ",
"                                ",
"    ........................    ",
"    ........................    ",
"    ..XXXXXXXXXXXXXXXXXXXX..    ",
"    ..XXXXXXXXXXXXXXXXXXXX..    ",
"    ..XXooooXX....XXOOOOXX..    ",
"    ..XXooooXX....XXOOOOXX..    ",
"    ..XXooooXX....XXOOOOXX..    ",
"    ..XXooooXX....XXOOOOXX..    ",
"    ..XXXXXXXXXXXXXXXXXXXX..    ",
"    ..XXXXXXXXXXXXXXXXXXXX..    ",
"    ..XX....XX++++XX....XX..    ",
"    ..XX....XX++++XX....XX..    ",
"    ..XX....XX++++XX....XX..    ",
"    ..XX....XX++++XX....XX..    ",
"    ..XXXXXXXXXXXXXXXXXXXX..    ",
"    ..XXXXXXXXXXXXXXXXXXXX..    ",
"    ..XX@@@@XX....XX####XX..    ",
"    ..XX@@@@XX....XX####XX..    ",
"    ..XX@@@@XX....XX####XX..    ",
"    ..XX@@@@XX....XX####XX..    ",
"    ..XXXXXXXXXXXXXXXXXXXX..    ",
"    ..XXXXXXXXXXXXXXXXXXXX..    ",
"    ........................    ",
"    ........................    ",
"                                ",
"                                ",
"                                ",
"                                "
};
